<?xml version="1.0" encoding="iso-8859-1"?>
<!-- Generator: Adobe Illustrator 19.0.0, SVG Export Plug-In . SVG Version: 6.00 Build 0)  -->
<svg version="1.1" id="Layer_1" xmlns="http://www.w3.org/2000/svg" xmlns:xlink="http://www.w3.org/1999/xlink" x="0px" y="0px"
	 viewBox="0 0 512 512" style="enable-background:new 0 0 512 512;" xml:space="preserve">
<rect x="122.819" y="64.51" style="fill:#E6E6E6;" width="378.982" height="224.495"/>
<rect x="10.199" y="222.995" style="fill:#FFD890;" width="378.982" height="224.495"/>
<rect x="122.819" y="113.996" style="fill:#947C7C;" width="378.982" height="48.283"/>
<circle style="fill:#FF9839;" cx="313.972" cy="375.453" r="27.619"/>
<g>
	<path style="fill:#4C1D1D;" d="M512,64.509c0-5.632-4.566-10.199-10.199-10.199H122.817c-5.633,0-10.199,4.567-10.199,10.199
		v148.29H10.199C4.566,212.799,0,217.366,0,222.998v224.493c0,5.632,4.566,10.199,10.199,10.199h378.984
		c5.633,0,10.199-4.567,10.199-10.199v-148.29h102.418c5.633,0,10.199-4.567,10.199-10.199V64.509z M491.602,74.708v29.087H133.016
		V74.708H491.602z M491.602,152.073H133.016v-27.88h358.586V152.073z M378.984,437.292H20.398V233.198h358.586V437.292z
		 M399.382,278.802v-55.805c0-5.632-4.566-10.199-10.199-10.199H133.016v-40.328h358.586v106.332H399.382z"/>
	<path style="fill:#4C1D1D;" d="M65.43,287.195h36.795c5.633,0,10.199-4.567,10.199-10.199c0-5.632-4.566-10.199-10.199-10.199
		H65.43c-5.633,0-10.199,4.567-10.199,10.199C55.231,282.628,59.797,287.195,65.43,287.195z"/>
	<path style="fill:#4C1D1D;" d="M142.699,287.195h36.795c5.633,0,10.199-4.567,10.199-10.199c0-5.632-4.566-10.199-10.199-10.199
		h-36.795c-5.633,0-10.199,4.567-10.199,10.199C132.5,282.628,137.066,287.195,142.699,287.195z"/>
	<path style="fill:#4C1D1D;" d="M219.542,287.195h36.795c5.633,0,10.199-4.567,10.199-10.199c0-5.632-4.566-10.199-10.199-10.199
		h-36.795c-5.633,0-10.199,4.567-10.199,10.199C209.343,282.628,213.909,287.195,219.542,287.195z"/>
	<path style="fill:#4C1D1D;" d="M295.959,287.195h36.795c5.633,0,10.199-4.567,10.199-10.199c0-5.632-4.566-10.199-10.199-10.199
		h-36.795c-5.633,0-10.199,4.567-10.199,10.199C285.76,282.628,290.326,287.195,295.959,287.195z"/>
	<path style="fill:#4C1D1D;" d="M238.935,375.451c0,20.851,16.963,37.815,37.815,37.815c6.535,0,12.97-1.722,18.619-4.911
		c5.497,3.12,11.842,4.911,18.601,4.911c20.851,0,37.815-16.963,37.815-37.815s-16.963-37.815-37.815-37.815
		c-6.759,0-13.104,1.791-18.6,4.911c-5.649-3.189-12.085-4.911-18.62-4.911C255.898,337.636,238.935,354.6,238.935,375.451z
		 M331.386,375.451c0,9.604-7.813,17.416-17.416,17.416c-9.604,0-17.416-7.813-17.416-17.416s7.813-17.416,17.416-17.416
		C323.574,358.035,331.386,365.847,331.386,375.451z M276.749,358.035c1.188,0,2.352,0.131,3.488,0.359
		c-2.604,5.129-4.082,10.921-4.082,17.057c0,6.135,1.478,11.928,4.082,17.057c-1.135,0.229-2.299,0.36-3.488,0.36
		c-9.604,0-17.416-7.813-17.416-17.416C259.333,365.848,267.146,358.035,276.749,358.035z"/>
</g>
<g>
</g>
<g>
</g>
<g>
</g>
<g>
</g>
<g>
</g>
<g>
</g>
<g>
</g>
<g>
</g>
<g>
</g>
<g>
</g>
<g>
</g>
<g>
</g>
<g>
</g>
<g>
</g>
<g>
</g>
</svg>
