<?xml version="1.0" encoding="iso-8859-1"?>
<!-- Generator: Adobe Illustrator 19.0.0, SVG Export Plug-In . SVG Version: 6.00 Build 0)  -->
<svg version="1.1" id="Layer_1" xmlns="http://www.w3.org/2000/svg" xmlns:xlink="http://www.w3.org/1999/xlink" x="0px" y="0px"
	 viewBox="0 0 512.001 512.001" style="enable-background:new 0 0 512.001 512.001;" xml:space="preserve">
<path style="fill:#FF4F19;" d="M75.023,436.978c-100.026-100.027-100.034-261.92,0-361.955
	c100.027-100.026,261.92-100.034,361.955,0c100.026,100.026,100.035,261.92,0,361.955
	C336.95,537.004,175.058,537.012,75.023,436.978z"/>
<path style="fill:#FC0023;" d="M436.978,75.023C386.961,25.006,321.48,0,256,0v512c65.482,0,130.963-25.008,180.977-75.022
	C537.013,336.944,537.004,175.05,436.978,75.023z"/>
<g>
	<path style="fill:#FFDB2D;" d="M145.801,215.133c-19.16-19.16-19.16-50.17,0-69.332c19.16-19.16,50.17-19.16,69.332,0
		c19.16,19.16,19.16,50.17,0,69.332l0,0l0,0C195.972,234.293,164.963,234.294,145.801,215.133z M169.932,169.933
		c-5.822,5.821-5.825,15.246,0,21.07c5.821,5.822,15.246,5.825,21.07,0l0,0c5.823-5.822,5.824-15.247,0-21.069
		C185.182,164.111,175.756,164.107,169.932,169.933z"/>
	<path style="fill:#FFDB2D;" d="M161.952,350.05c-6.664-6.664-6.664-17.467,0-24.13l163.967-163.968
		c6.662-6.664,17.467-6.664,24.13,0s6.664,17.467,0,24.13L186.082,350.05C179.419,356.712,168.615,356.714,161.952,350.05z"/>
</g>
<g>
	<path style="fill:#FF9900;" d="M350.049,161.952c-6.662-6.664-17.467-6.664-24.13,0L256,231.87v48.26l94.049-94.049
		C356.712,179.418,356.712,168.615,350.049,161.952z"/>
	<path style="fill:#FF9900;" d="M296.868,366.199c-19.115-19.115-19.115-50.217,0-69.332l0,0c19.117-19.114,50.217-19.113,69.332,0
		c19.115,19.115,19.115,50.217,0,69.332C347.086,385.312,315.985,385.314,296.868,366.199z M320.998,320.998
		c-5.808,5.809-5.808,15.262,0,21.07c5.81,5.809,15.263,5.807,21.071,0c5.808-5.808,5.808-15.261,0-21.07
		C336.259,315.19,326.806,315.191,320.998,320.998L320.998,320.998z"/>
</g>
<g>
</g>
<g>
</g>
<g>
</g>
<g>
</g>
<g>
</g>
<g>
</g>
<g>
</g>
<g>
</g>
<g>
</g>
<g>
</g>
<g>
</g>
<g>
</g>
<g>
</g>
<g>
</g>
<g>
</g>
</svg>
